<svg xmlns="http://www.w3.org/2000/svg" viewBox="0 0 691.23 745.42"><defs><style>.cls-1{fill:#fff;}</style></defs><g id="Shapes"><rect class="cls-1" x="27.21" y="433.54" width="113.39" height="113.39" rx="56.69"/></g><g id="Layer_3" data-name="Layer 3"><path class="cls-1" d="M191.34,660.31a21.26,21.26,0,0,0-21.26,21.26v42.52a21.26,21.26,0,0,1-21.26,21.26H21.26A21.26,21.26,0,0,1,0,724.09V681.57a21.26,21.26,0,0,1,21.26-21.26H148.82a21.25,21.25,0,0,0,21.26-21.25V456.45c0-11.74-9.3-21.36-21.26-22.57h0A170.11,170.11,0,0,1,0,265.12H0V201.34a21.26,21.26,0,0,1,21.26-21.26H63.79a21.26,21.26,0,0,1,21.26,21.26v63.78h0a85,85,0,0,0,85,85h63.78a21.26,21.26,0,0,1,21.26,21.26V639.05a21.26,21.26,0,0,1-21.26,21.26Z"/><path class="cls-1" d="M233.42,264.68h-43a21.26,21.26,0,0,1-20.35-15.13,11.54,11.54,0,0,1-.42-1.59c-.14-1.5-.31-3-.49-4.47A170.16,170.16,0,0,0,21.62,95.91c-1.12-.11-2.7-.16-4.47-.49A21.27,21.27,0,0,1,.43,74.66l.41-43a21.25,21.25,0,0,1,18.37-21,13.52,13.52,0,0,1,2.48-.19c123.94,10.23,222.75,109,233,233a16.49,16.49,0,0,1-.4,4A21.35,21.35,0,0,1,233.42,264.68Z"/><path class="cls-1" d="M286.21,348.86c-11.69,1.29-21.09-9.59-21.09-21.28V283.7c0-11.74,9.43-18.11,21.25-21.26h0a85.19,85.19,0,0,0,61.1-61.1h0c2.83-11.26,9.52-21.25,21.26-21.25h43.88c11.7,0,22.49,9.56,21.27,21.12v.14a170.18,170.18,0,0,1-147.5,147.5"/><path class="cls-1" d="M689,149l0-.14A170.15,170.15,0,0,0,541.5,1.32l-.17,0C529.64,0,520.24,10.89,520.24,22.58v41.2A21.26,21.26,0,0,1,499,85H371.42a21.26,21.26,0,0,1-21.26-21.26V21.26A21.26,21.26,0,0,0,328.9,0H286.38a21.26,21.26,0,0,0-21.26,21.26V148.82a21.26,21.26,0,0,0,21.26,21.26H499a21.26,21.26,0,0,0,21.26-21.26V106.3h0c0-11.74,11.69-21.26,21.25-18.58h0a85.19,85.19,0,0,1,61.1,61.1h0c2.82,11.26,9.52,21.25,21.26,21.25h43.88C679.43,170.08,690.23,160.52,689,149Z"/><path class="cls-1" d="M669.22,348.86c11.69,1.29,21.09-9.59,21.09-21.28V283.7c0-11.74-9.42-18.11-21.25-21.26h0A85.21,85.21,0,0,1,608,201.34h0c-2.82-11.26-9.52-21.25-21.25-21.25H542.81c-11.69,0-22.48,9.56-21.27,21.12l0,.14a170.16,170.16,0,0,0,147.5,147.5"/><path class="cls-1" d="M480.13,575.34H670a21.26,21.26,0,0,0,21.26-21.26V426.52A21.26,21.26,0,0,0,670,405.26H457.37A21.26,21.26,0,0,1,436.11,384V342.79c0-11.66-9-22.66-21.26-21.25A170.16,170.16,0,0,0,267.35,469c-1.12,11.4,9.54,21.25,21.25,21.26h41.21a22.3,22.3,0,0,1,22.13,21.26v-.12c10.75,131,120.46,234,254.24,234H670a21.26,21.26,0,0,0,21.26-21.26V681.64A21.26,21.26,0,0,0,670,660.38H606.19a169.81,169.81,0,0,1-135.26-67C464.23,584,468.4,575.34,480.13,575.34Zm-15.68-85a56.71,56.71,0,0,1,56.7-56.7h0a56.7,56.7,0,0,1,0,113.39h0A56.7,56.7,0,0,1,464.45,490.3Z"/><path class="cls-1" d="M285.74,658a85.22,85.22,0,0,0,60-57.1,7,7,0,0,1,6.63-4.68,7.14,7.14,0,0,1,6.57,4.51A255.73,255.73,0,0,0,392.6,657c7.18,8.71,7.84,21.45.18,30.22a169.76,169.76,0,0,1-107,57.12c-11.87,1.16-21.26-9.61-21.26-21.31V679.22c0-11.74,9.74-18.39,21.25-21.26"/></g></svg>