<svg xmlns="http://www.w3.org/2000/svg" viewBox="0 0 331.72 329.59"><defs><style>.cls-1{fill:#fff;}</style></defs><g id="Layer_3" data-name="Layer 3"><path class="cls-1" d="M167.43,189.15H298.92a14.73,14.73,0,0,0,14.72-14.73V86.07a14.72,14.72,0,0,0-14.72-14.72H151.67A14.73,14.73,0,0,1,137,56.62V28.08c0-8.07-6.24-15.7-14.73-14.72A117.87,117.87,0,0,0,20.06,115.52c-.78,7.9,6.61,14.72,14.72,14.73H63.32A15.44,15.44,0,0,1,78.65,145v-.08C86.1,235.63,162.09,307,254.74,307h44.18a14.73,14.73,0,0,0,14.72-14.73V262.77a14.72,14.72,0,0,0-14.72-14.72H254.74a117.58,117.58,0,0,1-93.67-46.38C156.42,195.11,159.31,189.15,167.43,189.15Zm-10.85-58.9A39.27,39.27,0,0,1,195.85,91h0a39.27,39.27,0,0,1,0,78.53h0A39.27,39.27,0,0,1,156.58,130.25Z"/><path class="cls-1" d="M32.8,250.62a59,59,0,0,0,41.53-39.55,4.87,4.87,0,0,1,4.6-3.25A5,5,0,0,1,83.48,211a177,177,0,0,0,23.33,39c5,6,5.43,14.86.12,20.93A117.52,117.52,0,0,1,32.8,310.46c-8.23.8-14.72-6.66-14.72-14.76V265.34c0-8.13,6.74-12.74,14.71-14.72"/></g></svg>